# xmcd
# 
# Track frame offsets:
#     150
#     17156
#     43990
#     66143
#     85406
#     104985
#     126879
#     142533
#     157563
# 
# Disc length: 2345
# 
# Revision: 0
# Processed by: cddbd v1.5.2PL0 Copyright (c) Steve Scherf et al.
# Submitted via: fre:ac v1.0.17
# 
DISCID=73092709
DTITLE=David Coverdale - Whitesnake
DYEAR=1977
DGENRE=Hard Rock
TTITLE0=Lady
TTITLE1=Blindeman
TTITLE2=Goldies Place
TTITLE3=Whitesnake
TTITLE4=Time On My Side
TTITLE5=Peace Loven' Man
TTITLE6=Sunny Days
TTITLE7=Hole In The Sky
TTITLE8=Celebration
EXTD=
EXTT0=
EXTT1=
EXTT2=
EXTT3=
EXTT4=
EXTT5=
EXTT6=
EXTT7=
EXTT8=
PLAYORDER=
